<?xml version="1.0" encoding="UTF-8" standalone="no"?>
<svg
   xmlns:dc="http://purl.org/dc/elements/1.1/"
   xmlns:cc="http://creativecommons.org/ns#"
   xmlns:rdf="http://www.w3.org/1999/02/22-rdf-syntax-ns#"
   xmlns:svg="http://www.w3.org/2000/svg"
   xmlns="http://www.w3.org/2000/svg"
   xmlns:xlink="http://www.w3.org/1999/xlink"
   xmlns:sodipodi="http://sodipodi.sourceforge.net/DTD/sodipodi-0.dtd"
   xmlns:inkscape="http://www.inkscape.org/namespaces/inkscape"
   version="1.1"
   preserveAspectRatio="xMidYMid meet"
   viewBox="0 0 6 6"
   width="6"
   height="6"
   id="svg3823"
   sodipodi:docname="close_light.svg"
   inkscape:version="0.92.4 5da689c313, 2019-01-14">
  <metadata
     id="metadata3827">
    <rdf:RDF>
      <cc:Work
         rdf:about="">
        <dc:format>image/svg+xml</dc:format>
        <dc:type
           rdf:resource="http://purl.org/dc/dcmitype/StillImage" />
        <dc:title />
      </cc:Work>
    </rdf:RDF>
  </metadata>
  <sodipodi:namedview
     pagecolor="#ffffff"
     bordercolor="#666666"
     borderopacity="1"
     objecttolerance="10"
     gridtolerance="10"
     guidetolerance="10"
     inkscape:pageopacity="0"
     inkscape:pageshadow="2"
     inkscape:window-width="1700"
     inkscape:window-height="702"
     id="namedview3825"
     showgrid="false"
     inkscape:zoom="52.083333"
     inkscape:cx="1.0214543"
     inkscape:cy="2.976903"
     inkscape:window-x="860"
     inkscape:window-y="738"
     inkscape:window-maximized="1"
     inkscape:current-layer="g3817" />
  <defs
     id="defs3809">
    <path
       d="M0.28 1.64C0.37 1.73 0.82 2.18 1.64 3C0.82 3.81 0.37 4.27 0.28 4.36C-0.1 4.73 -0.1 5.34 0.28 5.72C0.66 6.09 1.26 6.09 1.64 5.72C1.73 5.62 2.18 5.17 3 4.36C3.81 5.17 4.27 5.62 4.36 5.72C4.73 6.09 5.34 6.09 5.72 5.72C6.09 5.34 6.09 4.73 5.72 4.36C5.62 4.27 5.17 3.81 4.36 3C5.17 2.18 5.62 1.73 5.72 1.64C6.09 1.26 6.09 0.66 5.72 0.28C5.34 -0.1 4.73 -0.1 4.36 0.28C4.27 0.37 3.81 0.82 3 1.64C2.18 0.82 1.73 0.37 1.64 0.28C1.26 -0.1 0.66 -0.1 0.28 0.28C-0.1 0.66 -0.1 1.26 0.28 1.64Z"
       id="h2Vn3p31kU" />
    <filter
       style="color-interpolation-filters:sRGB;"
       inkscape:label="Invert"
       id="filter3871">
      <feColorMatrix
         type="hueRotate"
         values="180"
         result="color1"
         id="feColorMatrix3867" />
      <feColorMatrix
         values="-1 0 0 0 1 0 -1 0 0 1 0 0 -1 0 1 -0.21 -0.72 -0.07 2 0 "
         result="color2"
         id="feColorMatrix3869" />
    </filter>
  </defs>
  <g
     id="g3821">
    <g
       id="g3819">
      <g
         id="g3817">
        <use
           xlink:href="#h2Vn3p31kU"
           opacity="0.5"
           fill="#000000"
           fill-opacity="1"
           id="use3811"
           style="filter:url(#filter3871);fill:#d65c5c;fill-opacity:1;opacity:1" />
        <g
           id="g3815">
          <use
             xlink:href="#h2Vn3p31kU"
             opacity="0.5"
             fill-opacity="0"
             stroke="#000000"
             stroke-width="2"
             stroke-opacity="0"
             id="use3813" />
        </g>
      </g>
    </g>
  </g>
</svg>
