<?xml version="1.0" encoding="UTF-8" standalone="no"?>
<!DOCTYPE svg PUBLIC "-//W3C//DTD SVG 1.1//EN" "http://www.w3.org/Graphics/SVG/1.1/DTD/svg11.dtd">
<svg version="1.1" xmlns="http://www.w3.org/2000/svg" xmlns:xlink="http://www.w3.org/1999/xlink" preserveAspectRatio="xMidYMid meet" viewBox="0 0 6 6" width="6" height="6"><defs><path d="M0.28 1.64C0.37 1.73 0.82 2.18 1.64 3C0.82 3.81 0.37 4.27 0.28 4.36C-0.1 4.73 -0.1 5.34 0.28 5.72C0.66 6.09 1.26 6.09 1.64 5.72C1.73 5.62 2.18 5.17 3 4.36C3.81 5.17 4.27 5.62 4.36 5.72C4.73 6.09 5.34 6.09 5.72 5.72C6.09 5.34 6.09 4.73 5.72 4.36C5.62 4.27 5.17 3.81 4.36 3C5.17 2.18 5.62 1.73 5.72 1.64C6.09 1.26 6.09 0.66 5.72 0.28C5.34 -0.1 4.73 -0.1 4.36 0.28C4.27 0.37 3.81 0.82 3 1.64C2.18 0.82 1.73 0.37 1.64 0.28C1.26 -0.1 0.66 -0.1 0.28 0.28C-0.1 0.66 -0.1 1.26 0.28 1.64Z" id="h2Vn3p31kU"></path></defs><g><g><g><use xlink:href="#h2Vn3p31kU" opacity="0.5" fill="#000000" fill-opacity="1"></use><g><use xlink:href="#h2Vn3p31kU" opacity="0.5" fill-opacity="0" stroke="#000000" stroke-width="2" stroke-opacity="0"></use></g></g></g></g></svg>