<?xml version="1.0" encoding="UTF-8" standalone="no"?>
<svg
   xmlns:dc="http://purl.org/dc/elements/1.1/"
   xmlns:cc="http://creativecommons.org/ns#"
   xmlns:rdf="http://www.w3.org/1999/02/22-rdf-syntax-ns#"
   xmlns:svg="http://www.w3.org/2000/svg"
   xmlns="http://www.w3.org/2000/svg"
   xmlns:xlink="http://www.w3.org/1999/xlink"
   xmlns:sodipodi="http://sodipodi.sourceforge.net/DTD/sodipodi-0.dtd"
   xmlns:inkscape="http://www.inkscape.org/namespaces/inkscape"
   version="1.1"
   preserveAspectRatio="xMidYMid meet"
   viewBox="0 0 12 12"
   width="12"
   height="12"
   id="svg17"
   sodipodi:docname="close_light@2.svg"
   inkscape:version="0.92.4 5da689c313, 2019-01-14">
  <metadata
     id="metadata21">
    <rdf:RDF>
      <cc:Work
         rdf:about="">
        <dc:format>image/svg+xml</dc:format>
        <dc:type
           rdf:resource="http://purl.org/dc/dcmitype/StillImage" />
        <dc:title />
      </cc:Work>
    </rdf:RDF>
  </metadata>
  <sodipodi:namedview
     pagecolor="#ffffff"
     bordercolor="#666666"
     borderopacity="1"
     objecttolerance="10"
     gridtolerance="10"
     guidetolerance="10"
     inkscape:pageopacity="0"
     inkscape:pageshadow="2"
     inkscape:window-width="962"
     inkscape:window-height="1408"
     id="namedview19"
     showgrid="false"
     inkscape:zoom="19.666667"
     inkscape:cx="-2.6440677"
     inkscape:cy="6.0000001"
     inkscape:window-x="1598"
     inkscape:window-y="32"
     inkscape:window-maximized="0"
     inkscape:current-layer="svg17" />
  <defs
     id="defs3">
    <path
       d="M0.56 3.28C0.74 3.46 1.65 4.37 3.28 6C1.65 7.63 0.74 8.53 0.56 8.72C-0.19 9.47 -0.19 10.68 0.56 11.43C1.32 12.19 2.53 12.19 3.28 11.43C3.46 11.25 4.37 10.35 6 8.72C7.63 10.35 8.53 11.25 8.72 11.43C9.47 12.19 10.68 12.19 11.43 11.43C12.19 10.68 12.19 9.47 11.43 8.72C11.25 8.53 10.35 7.63 8.72 6C10.35 4.37 11.25 3.46 11.43 3.28C12.19 2.53 12.19 1.32 11.43 0.56C10.68 -0.19 9.47 -0.19 8.72 0.56C8.53 0.74 7.63 1.65 6 3.28C4.37 1.65 3.46 0.74 3.28 0.56C2.53 -0.19 1.32 -0.19 0.56 0.56C-0.19 1.32 -0.19 2.53 0.56 3.28Z"
       id="a1SDzuIGCL" />
    <filter
       style="color-interpolation-filters:sRGB;"
       inkscape:label="Invert"
       id="filter27">
      <feColorMatrix
         type="hueRotate"
         values="180"
         result="color1"
         id="feColorMatrix23" />
      <feColorMatrix
         values="-1 0 0 0 1 0 -1 0 0 1 0 0 -1 0 1 0.21 0.72 0.07 1 0 "
         result="color2"
         id="feColorMatrix25" />
    </filter>
  </defs>
  <g
     id="g15"
     style="filter:url(#filter27);fill:#d65c5c;fill-opacity:1">
    <g
       id="g13"
       style="fill:#d65c5c;fill-opacity:1">
      <g
         id="g11"
         style="fill:#d65c5c;fill-opacity:1">
        <use
           xlink:href="#a1SDzuIGCL"
           opacity="0.5"
           fill="#000000"
           fill-opacity="1"
           id="use5"
           style="fill:#d65c5c;fill-opacity:1" />
        <g
           id="g9"
           style="fill:#d65c5c;fill-opacity:1">
          <use
             xlink:href="#a1SDzuIGCL"
             opacity="0.5"
             fill-opacity="0"
             stroke="#000000"
             stroke-width="2"
             stroke-opacity="0"
             id="use7"
             style="fill:#d65c5c;fill-opacity:1" />
        </g>
      </g>
    </g>
  </g>
</svg>
