<?xml version="1.0" encoding="UTF-8" standalone="no"?>
<!DOCTYPE svg PUBLIC "-//W3C//DTD SVG 1.1//EN" "http://www.w3.org/Graphics/SVG/1.1/DTD/svg11.dtd">
<svg version="1.1" xmlns="http://www.w3.org/2000/svg" xmlns:xlink="http://www.w3.org/1999/xlink" preserveAspectRatio="xMidYMid meet" viewBox="0 0 12 12" width="12" height="12"><defs><path d="M0.56 3.28C0.74 3.46 1.65 4.37 3.28 6C1.65 7.63 0.74 8.53 0.56 8.72C-0.19 9.47 -0.19 10.68 0.56 11.43C1.32 12.19 2.53 12.19 3.28 11.43C3.46 11.25 4.37 10.35 6 8.72C7.63 10.35 8.53 11.25 8.72 11.43C9.47 12.19 10.68 12.19 11.43 11.43C12.19 10.68 12.19 9.47 11.43 8.72C11.25 8.53 10.35 7.63 8.72 6C10.35 4.37 11.25 3.46 11.43 3.28C12.19 2.53 12.19 1.32 11.43 0.56C10.68 -0.19 9.47 -0.19 8.72 0.56C8.53 0.74 7.63 1.65 6 3.28C4.37 1.65 3.46 0.74 3.28 0.56C2.53 -0.19 1.32 -0.19 0.56 0.56C-0.19 1.32 -0.19 2.53 0.56 3.28Z" id="a1SDzuIGCL"></path></defs><g><g><g><use xlink:href="#a1SDzuIGCL" opacity="0.5" fill="#000000" fill-opacity="1"></use><g><use xlink:href="#a1SDzuIGCL" opacity="0.5" fill-opacity="0" stroke="#000000" stroke-width="2" stroke-opacity="0"></use></g></g></g></g></svg>